<svg width="16" height="16" viewBox="0 0 16 16" fill="none" xmlns="http://www.w3.org/2000/svg">
<path d="M8.125 4.98047C8.67188 4.98047 9.19141 5.14453 9.68359 5.41797C10.1758 5.69141 10.5586 6.07422 10.832 6.56641C11.1055 7.05859 11.2695 7.57812 11.2695 8.125C11.2695 8.69922 11.1055 9.21875 10.832 9.71094C10.5586 10.2031 10.1758 10.5859 9.68359 10.8594C9.19141 11.1328 8.67188 11.2695 8.125 11.2695C7.55078 11.2695 7.03125 11.1328 6.53906 10.8594C6.04688 10.5859 5.66406 10.2031 5.39062 9.71094C5.11719 9.21875 4.98047 8.69922 4.98047 8.125C4.98047 7.57812 5.11719 7.05859 5.39062 6.56641C5.66406 6.07422 6.04688 5.69141 6.53906 5.41797C7.03125 5.14453 7.55078 4.98047 8.125 4.98047ZM8.125 10.1758C8.67188 10.1758 9.16406 9.98438 9.57422 9.57422C9.95703 9.19141 10.1758 8.69922 10.1758 8.125C10.1758 7.57812 9.95703 7.08594 9.57422 6.67578C9.16406 6.29297 8.67188 6.07422 8.125 6.07422C7.55078 6.07422 7.05859 6.29297 6.67578 6.67578C6.26562 7.08594 6.07422 7.57812 6.07422 8.125C6.07422 8.69922 6.26562 9.19141 6.67578 9.57422C7.05859 9.98438 7.55078 10.1758 8.125 10.1758ZM12.1445 4.84375C12.1445 4.65234 12.0625 4.48828 11.9258 4.32422C11.7617 4.1875 11.5977 4.10547 11.4062 4.10547C11.1875 4.10547 11.0234 4.1875 10.8867 4.32422C10.7227 4.48828 10.668 4.65234 10.668 4.84375C10.668 5.0625 10.7227 5.22656 10.8867 5.36328C11.0234 5.52734 11.1875 5.58203 11.4062 5.58203C11.5977 5.58203 11.7617 5.52734 11.8984 5.36328C12.0352 5.22656 12.1172 5.0625 12.1445 4.84375ZM14.2227 5.58203C14.2227 6.10156 14.25 6.94922 14.25 8.125C14.25 9.32812 14.2227 10.1758 14.1953 10.6953C14.168 11.2148 14.0859 11.6523 13.9766 12.0352C13.8125 12.5 13.5391 12.9102 13.2109 13.2383C12.8828 13.5664 12.4727 13.8125 12.0352 13.9766C11.6523 14.1133 11.1875 14.1953 10.668 14.2227C10.1484 14.25 9.30078 14.25 8.125 14.25C6.92188 14.25 6.07422 14.25 5.55469 14.2227C5.03516 14.1953 4.59766 14.1133 4.21484 13.9492C3.75 13.8125 3.33984 13.5664 3.01172 13.2383C2.68359 12.9102 2.4375 12.5 2.27344 12.0352C2.13672 11.6523 2.05469 11.2148 2.02734 10.6953C2 10.1758 2 9.32812 2 8.125C2 6.94922 2 6.10156 2.02734 5.58203C2.05469 5.0625 2.13672 4.59766 2.27344 4.21484C2.4375 3.77734 2.68359 3.36719 3.01172 3.03906C3.33984 2.71094 3.75 2.4375 4.21484 2.27344C4.59766 2.16406 5.03516 2.08203 5.55469 2.05469C6.07422 2.02734 6.92188 2 8.125 2C9.30078 2 10.1484 2.02734 10.668 2.05469C11.1875 2.08203 11.6523 2.16406 12.0352 2.27344C12.4727 2.4375 12.8828 2.71094 13.2109 3.03906C13.5391 3.36719 13.8125 3.77734 13.9766 4.21484C14.0859 4.59766 14.168 5.0625 14.2227 5.58203ZM12.9102 11.7344C13.0195 11.4336 13.0742 10.9414 13.1289 10.2578C13.1289 9.875 13.1562 9.30078 13.1562 8.5625V7.6875C13.1562 6.94922 13.1289 6.375 13.1289 5.99219C13.0742 5.30859 13.0195 4.81641 12.9102 4.51562C12.6914 3.96875 12.2812 3.55859 11.7344 3.33984C11.4336 3.23047 10.9414 3.17578 10.2578 3.12109C9.84766 3.12109 9.27344 3.09375 8.5625 3.09375H7.6875C6.94922 3.09375 6.375 3.12109 5.99219 3.12109C5.30859 3.17578 4.81641 3.23047 4.51562 3.33984C3.94141 3.55859 3.55859 3.96875 3.33984 4.51562C3.23047 4.81641 3.14844 5.30859 3.12109 5.99219C3.09375 6.40234 3.09375 6.97656 3.09375 7.6875V8.5625C3.09375 9.30078 3.09375 9.875 3.12109 10.2578C3.14844 10.9414 3.23047 11.4336 3.33984 11.7344C3.55859 12.3086 3.96875 12.6914 4.51562 12.9102C4.81641 13.0195 5.30859 13.1016 5.99219 13.1289C6.375 13.1562 6.94922 13.1562 7.6875 13.1562H8.5625C9.30078 13.1562 9.875 13.1562 10.2578 13.1289C10.9414 13.1016 11.4336 13.0195 11.7344 12.9102C12.2812 12.6914 12.6914 12.2812 12.9102 11.7344Z" fill="white"/>
</svg>
