<svg width="16" height="16" viewBox="0 0 16 16" fill="none" xmlns="http://www.w3.org/2000/svg">
<path d="M14.0195 4.84375C14.5664 4.43359 15.0586 3.94141 15.4688 3.33984C14.9219 3.58594 14.375 3.75 13.8281 3.80469C14.4297 3.42188 14.8672 2.90234 15.0859 2.21875C14.5117 2.54688 13.9102 2.79297 13.2539 2.90234C12.9805 2.62891 12.6523 2.41016 12.2969 2.24609C11.9414 2.08203 11.5586 2 11.1484 2C10.6289 2 10.1641 2.13672 9.72656 2.38281C9.28906 2.65625 8.93359 3.01172 8.6875 3.44922C8.41406 3.88672 8.30469 4.37891 8.30469 4.87109C8.30469 5.08984 8.30469 5.30859 8.35938 5.52734C7.18359 5.47266 6.08984 5.19922 5.05078 4.65234C4.01172 4.13281 3.16406 3.42188 2.45312 2.51953C2.17969 2.98438 2.04297 3.47656 2.04297 3.96875C2.04297 4.46094 2.15234 4.92578 2.39844 5.33594C2.61719 5.77344 2.94531 6.10156 3.32812 6.375C2.86328 6.375 2.42578 6.23828 2.04297 5.99219V6.04688C2.04297 6.73047 2.26172 7.33203 2.69922 7.85156C3.13672 8.39844 3.68359 8.72656 4.33984 8.86328C4.06641 8.91797 3.82031 8.94531 3.57422 8.94531C3.41016 8.94531 3.21875 8.94531 3.05469 8.91797C3.21875 9.49219 3.54688 9.95703 4.03906 10.3398C4.53125 10.7227 5.07812 10.8867 5.73438 10.8867C4.66797 11.707 3.46484 12.1172 2.15234 12.1172C1.87891 12.1172 1.66016 12.1172 1.46875 12.0898C2.78125 12.9648 4.25781 13.375 5.87109 13.375C7.53906 13.375 9.01562 12.9648 10.3281 12.0898C11.5039 11.3242 12.4336 10.3125 13.0898 9C13.7188 7.79688 14.0469 6.51172 14.0469 5.19922C14.0469 5.03516 14.0195 4.92578 14.0195 4.84375Z" fill="white"/>
</svg>
