<svg width="16" height="16" viewBox="0 0 16 16" fill="none" xmlns="http://www.w3.org/2000/svg">
<path d="M15.0977 4.64062C15.207 5.13281 15.3164 5.89844 15.3711 6.88281L15.3984 8.25L15.3711 9.61719C15.3164 10.6562 15.207 11.3945 15.0977 11.8867C14.9883 12.2148 14.8242 12.4883 14.6055 12.707C14.3594 12.9531 14.0859 13.1172 13.7578 13.1992C13.2656 13.3359 12.1719 13.418 10.4219 13.4727L7.93359 13.5L5.44531 13.4727C3.69531 13.418 2.57422 13.3359 2.10938 13.1992C1.78125 13.1172 1.48047 12.9531 1.26172 12.707C1.01562 12.4883 0.851562 12.2148 0.769531 11.8867C0.632812 11.3945 0.550781 10.6562 0.496094 9.61719L0.46875 8.25C0.46875 7.86719 0.46875 7.40234 0.496094 6.88281C0.550781 5.89844 0.632812 5.13281 0.769531 4.64062C0.851562 4.3125 1.01562 4.03906 1.26172 3.79297C1.48047 3.57422 1.78125 3.41016 2.10938 3.30078C2.57422 3.19141 3.69531 3.08203 5.44531 3.02734L7.93359 3L10.4219 3.02734C12.1719 3.08203 13.2656 3.19141 13.7578 3.30078C14.0859 3.41016 14.3594 3.57422 14.6055 3.79297C14.8242 4.03906 14.9883 4.3125 15.0977 4.64062ZM6.40234 10.4922L10.3125 8.25L6.40234 6.03516V10.4922Z" fill="white"/>
</svg>
