<svg width="173" height="17" viewBox="0 0 173 17" fill="none" xmlns="http://www.w3.org/2000/svg">
<path d="M10.0438 0.665989V10.61L3.92777 0.665989H0.759766V16H3.86177V5.98999L9.95577 16H13.1458V0.665989H10.0438Z" fill="white"/>
<path d="M16.6582 16H26.9102V13.14H19.7602V9.50999H26.4702V6.64999H19.7602V3.50399H26.9102V0.665989H16.6582V16Z" fill="white"/>
<path d="M41.7071 16L37.5931 9.37799C39.3531 8.73999 40.3431 7.33199 40.3431 5.13199C40.3431 2.40399 38.8251 0.665989 35.0631 0.665989H29.8711V16H32.9511V9.77399H33.6111H34.5131L38.1211 16H41.7071ZM32.9511 6.91399V3.50399H34.7551C36.1851 3.50399 37.2411 3.72399 37.2411 5.17599C37.2411 6.64999 36.1851 6.91399 34.7551 6.91399H32.9511Z" fill="white"/>
<path d="M43.4707 16H47.9807C53.1947 16 56.0327 13.338 56.0327 8.45399C56.0327 3.48199 53.1067 0.665989 48.0027 0.665989H43.4707V16ZM46.5727 13.14V3.50399H47.9367C51.1927 3.50399 52.9087 4.77999 52.9087 8.32199C52.9087 11.974 51.1707 13.14 47.6727 13.14H46.5727Z" fill="white"/>
<path d="M62.9129 16.308C66.0369 16.308 68.3469 14.328 68.3469 11.38C68.3469 9.20199 67.2689 8.07999 63.9909 6.80399C61.7249 5.92399 61.0649 5.37399 61.0649 4.49399C61.0649 3.65799 61.8129 3.04199 62.7589 3.04199C63.7049 3.04199 64.5409 3.63599 65.0249 4.77999L67.5989 3.17399C66.6309 1.25999 64.9589 0.291988 62.8469 0.291988C59.9209 0.291988 57.9629 2.05199 57.9629 4.55999C57.9629 6.84799 59.1289 8.03599 62.3629 9.33399C64.4969 10.192 65.2449 10.786 65.2449 11.666C65.2449 12.898 64.2989 13.558 62.9569 13.558C61.3069 13.558 60.1409 12.612 59.9649 10.808L56.8849 11.578C57.3469 14.438 59.7889 16.308 62.9129 16.308Z" fill="white"/>
<path d="M85.4171 16H88.7831L82.5571 0.665989H80.2471L73.9771 16H77.3651L78.4431 13.118H84.3391L85.4171 16ZM79.5211 10.258L81.4131 5.26399L83.2831 10.258H79.5211Z" fill="white"/>
<path d="M91.9006 16H95.0246V3.50399H99.6666V0.665989H87.2586V3.50399H91.9006V16Z" fill="white"/>
<path d="M116.091 0.665989V10.61L109.975 0.665989H106.807V16H109.909V5.98999L116.003 16H119.193V0.665989H116.091Z" fill="white"/>
<path d="M122.705 16H125.807V0.665989H122.705V16Z" fill="white"/>
<path d="M136.297 7.59599V10.39H139.663V10.61C139.663 12.238 138.365 13.404 135.989 13.404C133.151 13.404 131.281 11.732 131.281 8.32199C131.281 5.04399 132.997 3.21799 135.725 3.21799C137.639 3.21799 139.157 4.14199 139.817 5.96799L142.677 4.84599C141.511 1.85399 138.871 0.269989 135.769 0.269989C131.215 0.269989 128.179 3.72399 128.179 8.38799C128.179 13.096 131.281 16.374 135.769 16.374C137.705 16.374 139.289 15.758 140.235 14.46L140.587 16H142.765V7.59599H136.297Z" fill="white"/>
<path d="M145.736 16H148.838V9.50999H155.174V16H158.276V0.665989H155.174V6.67199H148.838V0.665989H145.736V16Z" fill="white"/>
<path d="M164.69 16H167.814V3.50399H172.456V0.665989H160.048V3.50399H164.69V16Z" fill="white"/>
</svg>
